<svg xmlns="http://www.w3.org/2000/svg" viewBox="0 0 200 200" fill="none">
  <g transform="translate(100,100) rotate(-40) translate(-100,-100)">
    <rect x="62" y="30" width="10" height="80" rx="2" fill="#2d2d2d"/>
    <path d="M48 30 L82 30 L88 10 L42 10 Z" fill="#4a4a4a"/>
    <rect x="57" y="110" width="20" height="40" rx="3" fill="#5c3a1e"/>
  </g>
  <g transform="translate(100,100) rotate(40) translate(-100,-100)">
    <rect x="62" y="30" width="10" height="80" rx="2" fill="#2d2d2d"/>
    <path d="M48 30 L82 30 L88 10 L42 10 Z" fill="#4a4a4a"/>
    <rect x="57" y="110" width="20" height="40" rx="3" fill="#5c3a1e"/>
  </g>
  <g transform="translate(100,65) scale(0.5)">
    <ellipse cx="0" cy="0" rx="40" ry="20" fill="#1a1a1a"/>
    <rect x="-35" y="-5" width="10" height="18" fill="#1a1a1a"/>
    <rect x="25" y="-5" width="10" height="18" fill="#1a1a1a"/>
    <circle cx="-15" cy="-8" r="3" fill="#1a1a1a"/>
    <circle cx="15" cy="-8" r="3" fill="#1a1a1a"/>
    <rect x="-8" y="-3" width="16" height="8" rx="2" fill="#1a1a1a"/>
    <rect x="-30" y="15" width="6" height="20" fill="#1a1a1a"/>
    <rect x="-15" y="15" width="6" height="20" fill="#1a1a1a"/>
    <rect x="10" y="15" width="6" height="20" fill="#1a1a1a"/>
    <rect x="25" y="15" width="6" height="20" fill="#1a1a1a"/>
  </g>
</svg>